<?xml version="1.0" encoding="UTF-8"?><svg id="Objects" xmlns="http://www.w3.org/2000/svg" viewBox="0 0 74.9 74.9"><defs><style>.cls-1,.cls-2{fill:#fff;}.cls-2{fill-rule:evenodd;}</style></defs><path class="cls-2" d="m32.5,37.6v18.3c0,.3.2.5.5.5h6.8c.3,0,.5-.2.5-.5v-18.6h4.9c.2,0,.5-.2.5-.4l.5-5.6c0-.3-.2-.5-.5-.5h-5.4v-4c0-.9.8-1.7,1.7-1.7h3.8c.3,0,.5-.2.5-.5v-5.6c0-.3-.2-.5-.5-.5h-6.4c-3.8,0-6.8,3.1-6.8,6.8v5.4h-3.4c-.3,0-.5.2-.5.5v5.6c0,.3.2.5.5.5h3.4v.3Z"/><path class="cls-1" d="m37.5,0C16.8,0,0,16.8,0,37.5s16.8,37.5,37.5,37.5,37.5-16.8,37.5-37.5S58.1,0,37.5,0Zm32.7,37.5c0,18-14.7,32.7-32.7,32.7S4.8,55.5,4.8,37.5,19.5,4.8,37.5,4.8s32.7,14.7,32.7,32.7Z"/></svg>