<?xml version="1.0" encoding="UTF-8"?><svg id="Objects" xmlns="http://www.w3.org/2000/svg" viewBox="0 0 74.9 74.9"><defs><style>.cls-1{fill:#fff;}</style></defs><path class="cls-1" d="m37.5,0C16.8,0,0,16.8,0,37.5s16.8,37.5,37.5,37.5,37.5-16.8,37.5-37.5S58.1,0,37.5,0Zm0,70.1c-18,0-32.7-14.7-32.7-32.7S19.5,4.8,37.5,4.8s32.7,14.7,32.7,32.7-14.7,32.7-32.7,32.7Z"/><g><path class="cls-1" d="m31.3,34.8c-.5,3.9-1.1,7.9-1.6,11.8h-3c-.6-3.9-1.1-7.8-1.7-11.7,0,0,0,0,0,0v11.7h-4.2v-18.5c.1,0,.2,0,.3,0,1.9,0,3.7,0,5.6,0,.2,0,.3,0,.4.3.3,2.3.7,4.5,1,6.8,0,.4.1.9.2,1.3,0-.4.1-.8.2-1.2.3-2.3.6-4.7.9-7,0,0,.1-.2.2-.2,2,0,4,0,6,0,0,0,0,0,0,0v18.5h-4.2v-11.8h0Z"/><path class="cls-1" d="m37.2,28.1c1.3,0,2.6,0,3.9,0,1.1,0,2.1,0,3.2.2.4,0,.8.1,1.2.2,1.5.5,2.3,1.5,2.5,3.1,0,.8.1,1.6.1,2.4,0,2.7,0,5.4,0,8.1,0,.6,0,1.2-.2,1.8-.2,1.4-1,2.3-2.5,2.5-.7.1-1.4.2-2.1.2-2,0-3.9,0-5.9,0,0,0-.2,0-.2,0v-18.5Zm4.8,3.2v12.1c0,0,.2,0,.2,0,.7,0,1-.2,1.1-1,0-.4,0-.7,0-1.1,0-2.6,0-5.2,0-7.8,0-.5,0-.9,0-1.4,0-.5-.3-.7-.8-.8-.2,0-.4,0-.6,0Z"/><path class="cls-1" d="m54.3,45.5c-.1.4-.2.8-.3,1.1h-4.3v-18.5h4.6v6c.1,0,.2-.1.2-.1.9-.9,2-1.2,3.2-1.1.3,0,.5,0,.8.1,1.4.3,2.1,1.2,2.1,2.8,0,2.3,0,4.6,0,6.8,0,.6,0,1.2-.1,1.8-.1,1.4-1.4,2.3-2.5,2.4-1.4.2-2.6-.1-3.5-1.2,0,0,0,0-.1-.1Zm1.6-5.6s0,0,0,0c0-.9,0-1.8,0-2.7,0-.4,0-.7-.1-1.1,0-.3-.4-.5-.9-.5-.3,0-.5.2-.6.6,0,.2,0,.4,0,.5,0,2,0,3.9,0,5.9,0,.4,0,.8,0,1.2,0,.4.3.6.7.5.5,0,.8-.2.8-.8,0-1.2,0-2.3,0-3.5Z"/><path class="cls-1" d="m19.1,46.6h-4.8v-18.5h4.8v18.5Z"/></g></svg>