<?xml version="1.0" encoding="UTF-8"?><svg id="Objects" xmlns="http://www.w3.org/2000/svg" viewBox="0 0 74.9 74.9"><defs><style>.cls-1{fill:#fff;}</style></defs><path class="cls-1" d="m50,27.1c0,1.2-1,2.2-2.2,2.2s-2.2-1-2.2-2.2,1-2.2,2.2-2.2,2.2,1,2.2,2.2Zm-2.8,10.1c0,5.2-4.2,9.4-9.4,9.4s-9.4-4.2-9.4-9.4,4.2-9.4,9.4-9.4,9.4,4.2,9.4,9.4Zm-3.4,0c0-3.3-2.7-6-6-6s-6,2.7-6,6,2.7,6,6,6,6-2.7,6-6Zm13-7.6c0-6.4-5.1-11.5-11.5-11.5h-15.7c-6.4,0-11.5,5.1-11.5,11.5v15.7c0,6.4,5.1,11.5,11.5,11.5h15.7c6.4,0,11.5-5.1,11.5-11.5v-15.7Zm-3.8,15.5c0,4.4-3.5,7.9-7.9,7.9h-15.3c-4.4,0-7.9-3.5-7.9-7.9v-15.3c0-4.4,3.5-7.9,7.9-7.9h15.3c4.4,0,7.9,3.5,7.9,7.9v15.3Z"/><path class="cls-1" d="m37.5,0C16.8,0,0,16.8,0,37.5s16.8,37.5,37.5,37.5,37.5-16.8,37.5-37.5S58.1,0,37.5,0Zm0,70.1c-18,0-32.7-14.7-32.7-32.7S19.5,4.8,37.5,4.8s32.7,14.7,32.7,32.7-14.7,32.7-32.7,32.7Z"/></svg>