<?xml version="1.0" encoding="UTF-8"?><svg id="Objects" xmlns="http://www.w3.org/2000/svg" viewBox="0 0 74.9 74.9"><defs><style>.cls-1{fill:#fff;}</style></defs><path class="cls-1" d="m20.8,27.9h7.2v23h-7.2v-23Zm3.6-11.4c2.3,0,4.1,1.9,4.1,4.1s-1.9,4.2-4.1,4.2-4.2-1.9-4.2-4.2,1.9-4.1,4.2-4.1m8.1,34.5h7.2v-11.4c0-3,.6-5.9,4.3-5.9s3.7,3.4,3.7,6.1v11.2h7.2v-12.6c0-6.2-1.3-11-8.6-11s-5.8,1.9-6.8,3.7h0v-3.1h-6.9v23Z"/><path class="cls-1" d="m37.5,0C16.8,0,0,16.8,0,37.5s16.8,37.5,37.5,37.5,37.5-16.8,37.5-37.5S58.1,0,37.5,0Zm0,70.1c-18,0-32.7-14.7-32.7-32.7S19.5,4.8,37.5,4.8s32.7,14.7,32.7,32.7-14.7,32.7-32.7,32.7Z"/></svg>