<?xml version="1.0" encoding="UTF-8"?><svg id="Objects" xmlns="http://www.w3.org/2000/svg" viewBox="0 0 74.9 74.9"><defs><style>.cls-1{fill:#fff;}</style></defs><path class="cls-1" d="m57.5,32.5c0-4.8-3.9-8.8-8.8-8.8h-22.5c-4.8,0-8.8,3.9-8.8,8.8v9.9c0,4.8,3.9,8.8,8.8,8.8h22.5c4.8,0,8.8-3.9,8.8-8.8v-9.9Zm-12.4,5.2l-10.1,5c-.4.2-1.8,0-1.8-.5v-10.2c0-.5,1.4-.7,1.8-.5l9.6,5.2c.4.2.8.8.4,1Z"/><path class="cls-1" d="m37.5,0C16.8,0,0,16.8,0,37.5s16.8,37.5,37.5,37.5,37.5-16.8,37.5-37.5S58.1,0,37.5,0Zm0,70.1c-18,0-32.7-14.7-32.7-32.7S19.5,4.8,37.5,4.8s32.7,14.7,32.7,32.7-14.7,32.7-32.7,32.7Z"/></svg>